<svg  xmlns="http://www.w3.org/2000/svg">
    <symbol id="avatar" viewBox="0 0 482.9 482.9">
        <path d="M239.7,260.2c0.5,0,1,0,1.6,0c0.2,0,0.4,0,0.6,0c0.3,0,0.7,0,1,0c29.3-0.5,53-10.8,70.5-30.5
			c38.5-43.4,32.1-117.8,31.4-124.9c-2.5-53.3-27.7-78.8-48.5-90.7C280.8,5.2,262.7,0.4,242.5,0h-0.7c-0.1,0-0.3,0-0.4,0h-0.6
			c-11.1,0-32.9,1.8-53.8,13.7c-21,11.9-46.6,37.4-49.1,91.1c-0.7,7.1-7.1,81.5,31.4,124.9C186.7,249.4,210.4,259.7,239.7,260.2z
			 M164.6,107.3c0-0.3,0.1-0.6,0.1-0.8c3.3-71.7,54.2-79.4,76-79.4h0.4c0.2,0,0.5,0,0.8,0c27,0.6,72.9,11.6,76,79.4
			c0,0.3,0,0.6,0.1,0.8c0.1,0.7,7.1,68.7-24.7,104.5c-12.6,14.2-29.4,21.2-51.5,21.4c-0.2,0-0.3,0-0.5,0l0,0c-0.2,0-0.3,0-0.5,0
			c-22-0.2-38.9-7.2-51.4-21.4C157.7,176.2,164.5,107.9,164.6,107.3z"/>
		<path d="M446.8,383.6c0-0.1,0-0.2,0-0.3c0-0.8-0.1-1.6-0.1-2.5c-0.6-19.8-1.9-66.1-45.3-80.9c-0.3-0.1-0.7-0.2-1-0.3
			c-45.1-11.5-82.6-37.5-83-37.8c-6.1-4.3-14.5-2.8-18.8,3.3c-4.3,6.1-2.8,14.5,3.3,18.8c1.7,1.2,41.5,28.9,91.3,41.7
			c23.3,8.3,25.9,33.2,26.6,56c0,0.9,0,1.7,0.1,2.5c0.1,9-0.5,22.9-2.1,30.9c-16.2,9.2-79.7,41-176.3,41
			c-96.2,0-160.1-31.9-176.4-41.1c-1.6-8-2.3-21.9-2.1-30.9c0-0.8,0.1-1.6,0.1-2.5c0.7-22.8,3.3-47.7,26.6-56
			c49.8-12.8,89.6-40.6,91.3-41.7c6.1-4.3,7.6-12.7,3.3-18.8c-4.3-6.1-12.7-7.6-18.8-3.3c-0.4,0.3-37.7,26.3-83,37.8
			c-0.4,0.1-0.7,0.2-1,0.3c-43.4,14.9-44.7,61.2-45.3,80.9c0,0.9,0,1.7-0.1,2.5c0,0.1,0,0.2,0,0.3c-0.1,5.2-0.2,31.9,5.1,45.3
			c1,2.6,2.8,4.8,5.2,6.3c3,2,74.9,47.8,195.2,47.8s192.2-45.9,195.2-47.8c2.3-1.5,4.2-3.7,5.2-6.3
			C447,415.5,446.9,388.8,446.8,383.6z"/>
    </symbol>
    <symbol id="chat" viewBox="0 0 612 612">
        <path d="M401.625,325.125h-191.25c-10.557,0-19.125,8.568-19.125,19.125s8.568,19.125,19.125,19.125h191.25
				c10.557,0,19.125-8.568,19.125-19.125S412.182,325.125,401.625,325.125z M439.875,210.375h-267.75
				c-10.557,0-19.125,8.568-19.125,19.125s8.568,19.125,19.125,19.125h267.75c10.557,0,19.125-8.568,19.125-19.125
				S450.432,210.375,439.875,210.375z M306,0C137.012,0,0,119.875,0,267.75c0,84.514,44.848,159.751,114.75,208.826V612
				l134.047-81.339c18.552,3.061,37.638,4.839,57.203,4.839c169.008,0,306-119.875,306-267.75C612,119.875,475.008,0,306,0z
				 M306,497.25c-22.338,0-43.911-2.601-64.643-7.019l-90.041,54.123l1.205-88.701C83.5,414.133,38.25,345.513,38.25,267.75
				c0-126.741,119.875-229.5,267.75-229.5c147.875,0,267.75,102.759,267.75,229.5S453.875,497.25,306,497.25z"/>
    </symbol>
    <symbol id="cross" viewBox="0 0 174.239 174.239">
        <path d="M146.537,1.047c-1.396-1.396-3.681-1.396-5.077,0L89.658,52.849c-1.396,1.396-3.681,1.396-5.077,0L32.78,1.047
        c-1.396-1.396-3.681-1.396-5.077,0L1.047,27.702c-1.396,1.396-1.396,3.681,0,5.077l51.802,51.802c1.396,1.396,1.396,3.681,0,5.077
        L1.047,141.46c-1.396,1.396-1.396,3.681,0,5.077l26.655,26.655c1.396,1.396,3.681,1.396,5.077,0l51.802-51.802
        c1.396-1.396,3.681-1.396,5.077,0l51.801,51.801c1.396,1.396,3.681,1.396,5.077,0l26.655-26.655c1.396-1.396,1.396-3.681,0-5.077
        l-51.801-51.801c-1.396-1.396-1.396-3.681,0-5.077l51.801-51.801c1.396-1.396,1.396-3.681,0-5.077L146.537,1.047z"/>
    </symbol>
    <symbol id="envelope" viewBox="0 0 483.3 483.3">
        <path d="M424.3,57.75H59.1c-32.6,0-59.1,26.5-59.1,59.1v249.6c0,32.6,26.5,59.1,59.1,59.1h365.1c32.6,0,59.1-26.5,59.1-59.1
			v-249.5C483.4,84.35,456.9,57.75,424.3,57.75z M456.4,366.45c0,17.7-14.4,32.1-32.1,32.1H59.1c-17.7,0-32.1-14.4-32.1-32.1v-249.5
			c0-17.7,14.4-32.1,32.1-32.1h365.1c17.7,0,32.1,14.4,32.1,32.1v249.5H456.4z"/>
		<path d="M304.8,238.55l118.2-106c5.5-5,6-13.5,1-19.1c-5-5.5-13.5-6-19.1-1l-163,146.3l-31.8-28.4c-0.1-0.1-0.2-0.2-0.2-0.3
			c-0.7-0.7-1.4-1.3-2.2-1.9L78.3,112.35c-5.6-5-14.1-4.5-19.1,1.1c-5,5.6-4.5,14.1,1.1,19.1l119.6,106.9L60.8,350.95
			c-5.4,5.1-5.7,13.6-0.6,19.1c2.7,2.8,6.3,4.3,9.9,4.3c3.3,0,6.6-1.2,9.2-3.6l120.9-113.1l32.8,29.3c2.6,2.3,5.8,3.4,9,3.4
			c3.2,0,6.5-1.2,9-3.5l33.7-30.2l120.2,114.2c2.6,2.5,6,3.7,9.3,3.7c3.6,0,7.1-1.4,9.8-4.2c5.1-5.4,4.9-14-0.5-19.1L304.8,238.55z"
			/>
    </symbol>
    <symbol id="github" viewBox="0 0 475.084 475.084">
        <path d="M436.244,146.752c5.14-15.422,7.713-31.409,7.713-47.967c0-22.08-4.859-42.828-14.564-62.242
			c-20.362,0-38.349,3.715-53.961,11.136c-15.604,7.423-33.4,18.938-53.379,34.545c-25.122-6.09-51.777-9.135-79.941-9.135
			c-30.837,0-60.245,3.333-88.223,9.994c-20.364-15.99-38.351-27.74-53.959-35.26c-15.608-7.52-33.689-11.279-54.247-11.279
			c-9.707,19.414-14.56,40.163-14.56,62.242c0,16.751,2.568,32.93,7.708,48.535C12.942,177.587,0,215.272,0,260.383
			c0,39.595,5.898,71.092,17.701,94.507c6.283,12.367,14.465,23.312,24.554,32.832c10.085,9.514,21.601,17.228,34.545,23.13
			c12.946,5.896,25.981,10.801,39.116,14.699c13.134,3.9,27.646,6.758,43.54,8.559c15.893,1.816,29.93,3.004,42.111,3.579
			c12.181,0.564,25.693,0.853,40.544,0.853c17.508,0,33.396-0.432,47.678-1.283c14.277-0.855,30.594-2.953,48.964-6.276
			c18.367-3.333,34.547-7.857,48.54-13.565c13.99-5.708,27.412-13.895,40.259-24.551c12.847-10.663,22.884-23.318,30.121-37.976
			c11.604-23.603,17.412-55.107,17.412-94.507C475.078,215.082,462.135,177.206,436.244,146.752z M401.995,354.455
			c-6.092,12.471-13.802,22.265-23.127,29.41c-9.329,7.139-20.938,12.847-34.831,17.135c-13.9,4.281-27.217,7.087-39.971,8.415
			c-12.758,1.334-26.933,1.998-42.545,1.998h-47.966c-15.607,0-29.79-0.664-42.541-1.998c-12.752-1.328-26.075-4.134-39.971-8.415
			c-13.891-4.288-25.5-9.996-34.829-17.135c-9.329-7.146-17.037-16.939-23.128-29.41c-6.09-12.471-9.136-27.076-9.136-43.824
			c0-22.847,6.567-42.264,19.702-58.245c13.134-15.99,30.929-23.982,53.387-23.982c8.188,0,26.746,1.997,55.677,5.995
			c13.513,2.093,28.456,3.14,44.823,3.14c16.372,0,31.313-1.044,44.824-3.14c29.317-3.999,47.869-5.995,55.678-5.995
			c22.457,0,40.252,7.996,53.386,23.982c13.135,15.988,19.698,35.398,19.698,58.245
			C411.125,327.382,408.079,341.995,401.995,354.455z"/>
		<path d="M166.875,265.52c-5.806-6.475-12.703-9.712-20.699-9.712c-7.998,0-14.896,3.241-20.701,9.712
			c-5.802,6.468-9.897,13.703-12.275,21.689c-2.383,8.002-3.571,15.804-3.571,23.422c0,7.61,1.191,15.413,3.571,23.414
			c2.375,7.991,6.468,15.222,12.275,21.689c5.808,6.475,12.703,9.713,20.701,9.713c7.996,0,14.896-3.244,20.699-9.713
			c5.804-6.468,9.897-13.698,12.275-21.689c2.38-8.001,3.571-15.804,3.571-23.414c0-7.611-1.188-15.42-3.571-23.422
			C176.771,279.226,172.682,271.994,166.875,265.52z"/>
		<path d="M349.601,265.52c-5.804-6.475-12.703-9.712-20.697-9.712c-7.991,0-14.894,3.241-20.701,9.712
			c-5.804,6.468-9.896,13.703-12.271,21.689c-2.385,8.002-3.576,15.804-3.576,23.422c0,7.61,1.191,15.413,3.576,23.414
			c2.375,7.991,6.468,15.222,12.271,21.689c5.808,6.475,12.71,9.713,20.701,9.713c7.994,0,14.894-3.244,20.697-9.713
			c5.801-6.468,9.896-13.698,12.278-21.689c2.379-8.001,3.569-15.804,3.569-23.414c0-7.611-1.19-15.42-3.569-23.422
			C359.498,279.226,355.402,271.994,349.601,265.52z"/>
    </symbol>
    <symbol id="link" viewBox="0 0 512.092 512.092">
        <path d="M312.453,199.601c-6.066-6.102-12.792-11.511-20.053-16.128c-19.232-12.315-41.59-18.859-64.427-18.859
			c-31.697-0.059-62.106,12.535-84.48,34.987L34.949,308.23c-22.336,22.379-34.89,52.7-34.91,84.318
			c-0.042,65.98,53.41,119.501,119.39,119.543c31.648,0.11,62.029-12.424,84.395-34.816l89.6-89.6
			c1.628-1.614,2.537-3.816,2.524-6.108c-0.027-4.713-3.87-8.511-8.583-8.484h-3.413c-18.72,0.066-37.273-3.529-54.613-10.581
			c-3.195-1.315-6.867-0.573-9.301,1.877l-64.427,64.512c-20.006,20.006-52.442,20.006-72.448,0
			c-20.006-20.006-20.006-52.442,0-72.448l108.971-108.885c19.99-19.965,52.373-19.965,72.363,0
			c13.472,12.679,34.486,12.679,47.957,0c5.796-5.801,9.31-13.495,9.899-21.675C322.976,216.108,319.371,206.535,312.453,199.601z"
			/>
		<path d="M477.061,34.993c-46.657-46.657-122.303-46.657-168.96,0l-89.515,89.429c-2.458,2.47-3.167,6.185-1.792,9.387
			c1.359,3.211,4.535,5.272,8.021,5.205h3.157c18.698-0.034,37.221,3.589,54.528,10.667c3.195,1.315,6.867,0.573,9.301-1.877
			l64.256-64.171c20.006-20.006,52.442-20.006,72.448,0c20.006,20.006,20.006,52.442,0,72.448l-80.043,79.957l-0.683,0.768
			l-27.989,27.819c-19.99,19.965-52.373,19.965-72.363,0c-13.472-12.679-34.486-12.679-47.957,0
			c-5.833,5.845-9.35,13.606-9.899,21.845c-0.624,9.775,2.981,19.348,9.899,26.283c9.877,9.919,21.433,18.008,34.133,23.893
			c1.792,0.853,3.584,1.536,5.376,2.304c1.792,0.768,3.669,1.365,5.461,2.048c1.792,0.683,3.669,1.28,5.461,1.792l5.035,1.365
			c3.413,0.853,6.827,1.536,10.325,2.133c4.214,0.626,8.458,1.025,12.715,1.195h5.973h0.512l5.12-0.597
			c1.877-0.085,3.84-0.512,6.059-0.512h2.901l5.888-0.853l2.731-0.512l4.949-1.024h0.939c20.961-5.265,40.101-16.118,55.381-31.403
			l108.629-108.629C523.718,157.296,523.718,81.65,477.061,34.993z"/>
    </symbol>
    <symbol id="arrow-long" viewBox="0 0 492 492">
        <path d="M464.344,207.418l0.768,0.168H135.888l103.496-103.724c5.068-5.064,7.848-11.924,7.848-19.124
			c0-7.2-2.78-14.012-7.848-19.088L223.28,49.538c-5.064-5.064-11.812-7.864-19.008-7.864c-7.2,0-13.952,2.78-19.016,7.844
			L7.844,226.914C2.76,231.998-0.02,238.77,0,245.974c-0.02,7.244,2.76,14.02,7.844,19.096l177.412,177.412
			c5.064,5.06,11.812,7.844,19.016,7.844c7.196,0,13.944-2.788,19.008-7.844l16.104-16.112c5.068-5.056,7.848-11.808,7.848-19.008
			c0-7.196-2.78-13.592-7.848-18.652L134.72,284.406h329.992c14.828,0,27.288-12.78,27.288-27.6v-22.788
			C492,219.198,479.172,207.418,464.344,207.418z"/>
    </symbol>
    <symbol id="pencil" viewBox="0 0 528.899 528.899">
        <path d="M328.883,89.125l107.59,107.589l-272.34,272.34L56.604,361.465L328.883,89.125z M518.113,63.177l-47.981-47.981
		c-18.543-18.543-48.653-18.543-67.259,0l-45.961,45.961l107.59,107.59l53.611-53.611
		C532.495,100.753,532.495,77.559,518.113,63.177z M0.3,512.69c-1.958,8.812,5.998,16.708,14.811,14.565l119.891-29.069
		L27.473,390.597L0.3,512.69z"/>
    </symbol>
    <symbol id="quote" viewBox="0 0 95.333 95.332">
        <path d="M30.512,43.939c-2.348-0.676-4.696-1.019-6.98-1.019c-3.527,0-6.47,0.806-8.752,1.793
			c2.2-8.054,7.485-21.951,18.013-23.516c0.975-0.145,1.774-0.85,2.04-1.799l2.301-8.23c0.194-0.696,0.079-1.441-0.318-2.045
			s-1.035-1.007-1.75-1.105c-0.777-0.106-1.569-0.16-2.354-0.16c-12.637,0-25.152,13.19-30.433,32.076
			c-3.1,11.08-4.009,27.738,3.627,38.223c4.273,5.867,10.507,9,18.529,9.313c0.033,0.001,0.065,0.002,0.098,0.002
			c9.898,0,18.675-6.666,21.345-16.209c1.595-5.705,0.874-11.688-2.032-16.851C40.971,49.307,36.236,45.586,30.512,43.939z"/>
		<path d="M92.471,54.413c-2.875-5.106-7.61-8.827-13.334-10.474c-2.348-0.676-4.696-1.019-6.979-1.019
			c-3.527,0-6.471,0.806-8.753,1.793c2.2-8.054,7.485-21.951,18.014-23.516c0.975-0.145,1.773-0.85,2.04-1.799l2.301-8.23
			c0.194-0.696,0.079-1.441-0.318-2.045c-0.396-0.604-1.034-1.007-1.75-1.105c-0.776-0.106-1.568-0.16-2.354-0.16
			c-12.637,0-25.152,13.19-30.434,32.076c-3.099,11.08-4.008,27.738,3.629,38.225c4.272,5.866,10.507,9,18.528,9.312
			c0.033,0.001,0.065,0.002,0.099,0.002c9.897,0,18.675-6.666,21.345-16.209C96.098,65.559,95.376,59.575,92.471,54.413z"/>
    </symbol>
    <symbol id="scroll" viewBox="-90 0 512 512">
        <path d="m166.238281 430.144531-89.769531-94.898437 29.058594-27.488282 60.632812 64.097657 60.273438-64.058594 
            29.132812 27.410156zm165.761719-38.144531v-272c0-66.167969-53.832031-120-120-120h-92c-66.167969 0-120 53.832031-120 
            120v272c0 66.167969 53.832031 120 120 120h92c66.167969 0 120-53.832031 120-120zm-120-352c44.113281 0 80 35.886719 80 80v272c0 
            44.113281-35.886719 80-80 80h-92c-44.113281 0-80-35.886719-80-80v-272c0-44.113281 35.886719-80 80-80zm-46 41c-11.046875 0-20 
            8.953125-20 20s8.953125 20 20 20 20-8.953125 20-20-8.953125-20-20-20zm0 80c-11.046875 0-20 8.953125-20 20s8.953125 20 20 20 
            20-8.953125 20-20-8.953125-20-20-20zm0 80c-11.046875 0-20 8.953125-20 20s8.953125 20 20 20 20-8.953125 20-20-8.953125-20-20-20zm0 0"/>
    </symbol>
    <symbol id="tick" viewBox="0 0 342.357 342.357">
        <polygon points="290.04,33.286 118.861,204.427 52.32,137.907 0,190.226 118.862,309.071 342.357,85.606 "/>
    </symbol>
    <symbol id="trash" viewBox="0 0 459 459">
        <path d="M76.5,408c0,28.05,22.95,51,51,51h204c28.05,0,51-22.95,51-51V102h-306V408z M408,25.5h-89.25L293.25,0h-127.5l-25.5,25.5
			H51v51h357V25.5z"/>
    </symbol>
    <symbol id="user" viewBox="0 0 350 350">
        <path d="M175,171.173c38.914,0,70.463-38.318,70.463-85.586C245.463,38.318,235.105,0,175,0s-70.465,38.318-70.465,85.587
		C104.535,132.855,136.084,171.173,175,171.173z"/>
        <path d="M41.909,301.853C41.897,298.971,41.885,301.041,41.909,301.853L41.909,301.853z"/>
        <path d="M308.085,304.104C308.123,303.315,308.098,298.63,308.085,304.104L308.085,304.104z"/>
        <path d="M307.935,298.397c-1.305-82.342-12.059-105.805-94.352-120.657c0,0-11.584,14.761-38.584,14.761
            s-38.586-14.761-38.586-14.761c-81.395,14.69-92.803,37.805-94.303,117.982c-0.123,6.547-0.18,6.891-0.202,6.131
            c0.005,1.424,0.011,4.058,0.011,8.651c0,0,19.592,39.496,133.08,39.496c113.486,0,133.08-39.496,133.08-39.496
            c0-2.951,0.002-5.003,0.005-6.399C308.062,304.575,308.018,303.664,307.935,298.397z"/>    
    </symbol>
    <symbol id="vk" viewBox="0 0 548.358 548.358">
        <path d="M545.451,400.298c-0.664-1.431-1.283-2.618-1.858-3.569c-9.514-17.135-27.695-38.167-54.532-63.102l-0.567-0.571
		l-0.284-0.28l-0.287-0.287h-0.288c-12.18-11.611-19.893-19.418-23.123-23.415c-5.91-7.614-7.234-15.321-4.004-23.13
		c2.282-5.9,10.854-18.36,25.696-37.397c7.807-10.089,13.99-18.175,18.556-24.267c32.931-43.78,47.208-71.756,42.828-83.939
		l-1.701-2.847c-1.143-1.714-4.093-3.282-8.846-4.712c-4.764-1.427-10.853-1.663-18.278-0.712l-82.224,0.568
		c-1.332-0.472-3.234-0.428-5.712,0.144c-2.475,0.572-3.713,0.859-3.713,0.859l-1.431,0.715l-1.136,0.859
		c-0.952,0.568-1.999,1.567-3.142,2.995c-1.137,1.423-2.088,3.093-2.848,4.996c-8.952,23.031-19.13,44.444-30.553,64.238
		c-7.043,11.803-13.511,22.032-19.418,30.693c-5.899,8.658-10.848,15.037-14.842,19.126c-4,4.093-7.61,7.372-10.852,9.849
		c-3.237,2.478-5.708,3.525-7.419,3.142c-1.715-0.383-3.33-0.763-4.859-1.143c-2.663-1.714-4.805-4.045-6.42-6.995
		c-1.622-2.95-2.714-6.663-3.285-11.136c-0.568-4.476-0.904-8.326-1-11.563c-0.089-3.233-0.048-7.806,0.145-13.706
		c0.198-5.903,0.287-9.897,0.287-11.991c0-7.234,0.141-15.085,0.424-23.555c0.288-8.47,0.521-15.181,0.716-20.125
		c0.194-4.949,0.284-10.185,0.284-15.705s-0.336-9.849-1-12.991c-0.656-3.138-1.663-6.184-2.99-9.137
		c-1.335-2.95-3.289-5.232-5.853-6.852c-2.569-1.618-5.763-2.902-9.564-3.856c-10.089-2.283-22.936-3.518-38.547-3.71
		c-35.401-0.38-58.148,1.906-68.236,6.855c-3.997,2.091-7.614,4.948-10.848,8.562c-3.427,4.189-3.905,6.475-1.431,6.851
		c11.422,1.711,19.508,5.804,24.267,12.275l1.715,3.429c1.334,2.474,2.666,6.854,3.999,13.134c1.331,6.28,2.19,13.227,2.568,20.837
		c0.95,13.897,0.95,25.793,0,35.689c-0.953,9.9-1.853,17.607-2.712,23.127c-0.859,5.52-2.143,9.993-3.855,13.418
		c-1.715,3.426-2.856,5.52-3.428,6.28c-0.571,0.76-1.047,1.239-1.425,1.427c-2.474,0.948-5.047,1.431-7.71,1.431
		c-2.667,0-5.901-1.334-9.707-4c-3.805-2.666-7.754-6.328-11.847-10.992c-4.093-4.665-8.709-11.184-13.85-19.558
		c-5.137-8.374-10.467-18.271-15.987-29.691l-4.567-8.282c-2.855-5.328-6.755-13.086-11.704-23.267
		c-4.952-10.185-9.329-20.037-13.134-29.554c-1.521-3.997-3.806-7.04-6.851-9.134l-1.429-0.859c-0.95-0.76-2.475-1.567-4.567-2.427
		c-2.095-0.859-4.281-1.475-6.567-1.854l-78.229,0.568c-7.994,0-13.418,1.811-16.274,5.428l-1.143,1.711
		C0.288,140.146,0,141.668,0,143.763c0,2.094,0.571,4.664,1.714,7.707c11.42,26.84,23.839,52.725,37.257,77.659
		c13.418,24.934,25.078,45.019,34.973,60.237c9.897,15.229,19.985,29.602,30.264,43.112c10.279,13.515,17.083,22.176,20.412,25.981
		c3.333,3.812,5.951,6.662,7.854,8.565l7.139,6.851c4.568,4.569,11.276,10.041,20.127,16.416
		c8.853,6.379,18.654,12.659,29.408,18.85c10.756,6.181,23.269,11.225,37.546,15.126c14.275,3.905,28.169,5.472,41.684,4.716h32.834
		c6.659-0.575,11.704-2.669,15.133-6.283l1.136-1.431c0.764-1.136,1.479-2.901,2.139-5.276c0.668-2.379,1-5,1-7.851
		c-0.195-8.183,0.428-15.558,1.852-22.124c1.423-6.564,3.045-11.513,4.859-14.846c1.813-3.33,3.859-6.14,6.136-8.418
		c2.282-2.283,3.908-3.666,4.862-4.142c0.948-0.479,1.705-0.804,2.276-0.999c4.568-1.522,9.944-0.048,16.136,4.429
		c6.187,4.473,11.99,9.996,17.418,16.56c5.425,6.57,11.943,13.941,19.555,22.124c7.617,8.186,14.277,14.271,19.985,18.274
		l5.708,3.426c3.812,2.286,8.761,4.38,14.853,6.283c6.081,1.902,11.409,2.378,15.984,1.427l73.087-1.14
		c7.229,0,12.854-1.197,16.844-3.572c3.998-2.379,6.373-5,7.139-7.851c0.764-2.854,0.805-6.092,0.145-9.712
		C546.782,404.25,546.115,401.725,545.451,400.298z"/>
    </symbol>
    <symbol id="insta" viewBox="0 0 97.395 97.395">
        <path d="M12.501,0h72.393c6.875,0,12.5,5.09,12.5,12.5v72.395c0,7.41-5.625,12.5-12.5,12.5H12.501C5.624,97.395,0,92.305,0,84.895
		V12.5C0,5.09,5.624,0,12.501,0L12.501,0z M70.948,10.821c-2.412,0-4.383,1.972-4.383,4.385v10.495c0,2.412,1.971,4.385,4.383,4.385
		h11.008c2.412,0,4.385-1.973,4.385-4.385V15.206c0-2.413-1.973-4.385-4.385-4.385H70.948L70.948,10.821z M86.387,41.188h-8.572
		c0.811,2.648,1.25,5.453,1.25,8.355c0,16.2-13.556,29.332-30.275,29.332c-16.718,0-30.272-13.132-30.272-29.332
		c0-2.904,0.438-5.708,1.25-8.355h-8.945v41.141c0,2.129,1.742,3.872,3.872,3.872h67.822c2.13,0,3.872-1.742,3.872-3.872V41.188
		H86.387z M48.789,29.533c-10.802,0-19.56,8.485-19.56,18.953c0,10.468,8.758,18.953,19.56,18.953
		c10.803,0,19.562-8.485,19.562-18.953C68.351,38.018,59.593,29.533,48.789,29.533z"/>
    </symbol>
    <symbol id="arrow-short" viewBox="0 0 306 306">
        <polygon points="94.35,0 58.65,35.7 175.95,153 58.65,270.3 94.35,306 247.35,153 		"/>
    </symbol>

</svg>